<svg width="167" height="48" viewBox="0 0 167 48" fill="none" xmlns="http://www.w3.org/2000/svg">
<path d="M4.57878 32.2406C3.1195 31.6629 1.99106 30.8626 1.19347 29.8517C0.395887 28.8348 -0.00585938 27.7036 -0.00585938 26.452V26.0307C-0.00585938 25.8743 0.047313 25.7419 0.153658 25.6336C0.260003 25.5253 0.389979 25.4711 0.543589 25.4711H4.59651C4.75011 25.4711 4.88009 25.5253 4.98644 25.6336C5.09278 25.7419 5.14595 25.8743 5.14595 26.0307V26.127C5.14595 26.9093 5.56542 27.5892 6.41027 28.1669C7.25513 28.7446 8.31857 29.0334 9.61243 29.0334C10.9063 29.0334 11.8398 28.7746 12.6078 28.2572C13.3759 27.7397 13.7599 27.0958 13.7599 26.3136C13.7599 25.5975 13.4468 25.0559 12.8146 24.6949C12.1824 24.3339 11.1662 23.9548 9.75423 23.5456L8.00545 22.986C6.43982 22.5166 5.12232 22.0172 4.04706 21.4877C2.97179 20.9582 2.06786 20.2301 1.32936 19.3094C0.590853 18.3888 0.224554 17.2094 0.224554 15.7713C0.224554 13.581 1.0694 11.842 2.7591 10.5422C4.4488 9.24248 6.67023 8.59863 9.43519 8.59863C11.308 8.59863 12.9505 8.90552 14.3625 9.51326C15.7745 10.121 16.8616 10.9694 17.6296 12.0465C18.3977 13.1236 18.7817 14.3512 18.7817 15.7291C18.7817 15.8856 18.7285 16.018 18.6222 16.1263C18.5159 16.2346 18.3859 16.2887 18.2323 16.2887H14.3211C14.1675 16.2887 14.0376 16.2346 13.9312 16.1263C13.8249 16.018 13.7717 15.8856 13.7717 15.7291C13.7717 14.9168 13.3818 14.2368 12.596 13.6893C11.8161 13.1417 10.7468 12.8709 9.39384 12.8709C8.1945 12.8709 7.21968 13.0996 6.46936 13.5509C5.71903 14.0022 5.34092 14.64 5.34092 15.4523C5.34092 16.2045 5.70131 16.7701 6.42209 17.1613C7.14287 17.5524 8.34811 17.9796 10.0378 18.449L11.0481 18.7318C12.6728 19.2312 14.0435 19.7427 15.1483 20.2541C16.2531 20.7716 17.1865 21.4877 17.9546 22.4083C18.7226 23.329 19.1067 24.5264 19.1067 25.9946C19.1067 28.215 18.2441 29.96 16.5308 31.2237C14.8115 32.4873 12.5251 33.1251 9.67151 33.1251C7.73958 33.1251 6.04398 32.8363 4.58469 32.2587L4.57878 32.2406Z" fill="#00163E"/>
<path d="M37.2446 9.51903C38.7157 10.205 39.8559 11.1497 40.6535 12.3532C41.4511 13.5566 41.8528 14.9226 41.8528 16.457V32.2584C41.8528 32.4149 41.7997 32.5472 41.6933 32.6556C41.587 32.7639 41.457 32.818 41.3034 32.818H37.0673C36.9137 32.818 36.7837 32.7639 36.6774 32.6556C36.571 32.5472 36.5179 32.4149 36.5179 32.2584V30.7601C36.5179 30.6638 36.4883 30.6097 36.4233 30.5976C36.3643 30.5796 36.2993 30.6037 36.2402 30.6698C34.7336 32.3607 32.5595 33.2031 29.7 33.2031C27.4018 33.2031 25.5053 32.6074 24.0164 31.422C22.5276 30.2366 21.7832 28.4675 21.7832 26.1208C21.7832 23.774 22.6162 21.7823 24.2941 20.4224C25.9661 19.0625 28.3234 18.3825 31.3601 18.3825H36.2874C36.4411 18.3825 36.5179 18.3043 36.5179 18.1478V17.0226C36.5179 15.8011 36.1634 14.8564 35.4603 14.1885C34.7514 13.5145 33.6938 13.1836 32.2818 13.1836C31.112 13.1836 30.1726 13.3942 29.4518 13.8154C28.7311 14.2366 28.2761 14.8263 28.093 15.5724C27.9985 15.9455 27.7858 16.102 27.449 16.0418L22.9825 15.4822C22.8289 15.4521 22.699 15.3979 22.5926 15.3197C22.4863 15.2415 22.4449 15.1392 22.4804 15.0128C22.7226 13.1053 23.7329 11.5408 25.4935 10.3254C27.26 9.10384 29.4755 8.49609 32.1459 8.49609C34.0778 8.49609 35.7853 8.83908 37.2564 9.52505L37.2446 9.51903ZM34.8991 27.6672C35.9743 26.8549 36.512 25.8259 36.512 24.5743V22.372C36.512 22.2155 36.4352 22.1373 36.2815 22.1373H32.4118C30.7871 22.1373 29.505 22.4502 28.5656 23.076C27.6322 23.7018 27.1595 24.5924 27.1595 25.7477C27.1595 26.7466 27.5199 27.5228 28.2407 28.0704C28.9615 28.6179 29.889 28.8887 31.0234 28.8887C32.524 28.8887 33.8179 28.4856 34.8932 27.6672H34.8991Z" fill="#00163E"/>
<path d="M58.9979 8.98359C59.1042 9.0919 59.1574 9.22428 59.1574 9.38073V13.0874C59.1574 13.2438 59.1042 13.3762 58.9979 13.4845C58.8915 13.5928 58.7615 13.647 58.6079 13.647H54.0528C53.8992 13.647 53.8224 13.7252 53.8224 13.8817V32.2645C53.8224 32.421 53.7692 32.5533 53.6629 32.6617C53.5566 32.77 53.4266 32.8241 53.273 32.8241H49.0369C48.8833 32.8241 48.7533 32.77 48.647 32.6617C48.5406 32.5533 48.4875 32.421 48.4875 32.2645V13.8817C48.4875 13.7252 48.4106 13.647 48.257 13.647H45.4035C45.2498 13.647 45.1199 13.5928 45.0135 13.4845C44.9072 13.3762 44.854 13.2438 44.854 13.0874V9.38073C44.854 9.22428 44.9072 9.0919 45.0135 8.98359C45.1199 8.87528 45.2498 8.82112 45.4035 8.82112H48.257C48.4106 8.82112 48.4875 8.7429 48.4875 8.58644V7.74402C48.4875 5.71018 48.7474 4.13966 49.2673 3.03248C49.7872 1.92529 50.6498 1.13101 51.8432 0.661661C53.0366 0.192312 54.7263 -0.0303286 56.9005 -0.000242123H58.5134C58.667 -0.000242123 58.797 0.0539136 58.9033 0.162225C59.0097 0.270536 59.0628 0.402917 59.0628 0.559367V3.8388C59.0628 3.99525 59.0097 4.12763 58.9033 4.23594C58.797 4.34425 58.667 4.3984 58.5134 4.3984H57.3141C55.9966 4.3984 55.0808 4.66317 54.5727 5.19871C54.0646 5.72823 53.8106 6.69701 53.8106 8.10506V8.57441C53.8106 8.73086 53.8874 8.80908 54.041 8.80908H58.5961C58.7497 8.80908 58.8797 8.86324 58.986 8.97155L58.9979 8.98359Z" fill="#00163E"/>
<path d="M81.5783 20.7776L81.531 22.2337C81.531 22.6068 81.3478 22.7934 80.9756 22.7934H66.5659C66.4123 22.7934 66.3355 22.8716 66.3355 23.028C66.43 24.057 66.5659 24.761 66.7491 25.1401C67.4876 27.3906 69.2836 28.5339 72.1372 28.5639C74.2227 28.5639 75.8829 27.6914 77.1118 25.9404C77.2358 25.7539 77.3894 25.6576 77.5726 25.6576C77.6967 25.6576 77.803 25.7057 77.8975 25.796L80.7511 28.1849C81.0288 28.4015 81.0761 28.6542 80.887 28.937C79.9358 30.315 78.6715 31.374 77.0881 32.1262C75.5048 32.8783 73.7501 33.2514 71.8182 33.2514C69.4254 33.2514 67.3871 32.7038 65.7152 31.6087C64.0432 30.5136 62.8202 28.9852 62.0522 27.0115C61.3432 25.3206 60.9946 22.9799 60.9946 19.9773C60.9946 18.1661 61.1778 16.6918 61.5441 15.5726C62.1585 13.3823 63.3165 11.6553 65.018 10.3917C66.7195 9.12807 68.7696 8.49023 71.1624 8.49023C77.2063 8.49023 80.6152 11.7095 81.3833 18.148C81.5074 18.9302 81.5664 19.8028 81.5664 20.7715L81.5783 20.7776ZM68.3442 14.0442C67.5939 14.6219 67.0622 15.4282 66.755 16.4571C66.5718 16.9867 66.4478 17.6787 66.3887 18.5211C66.3296 18.6775 66.3887 18.7557 66.5718 18.7557H75.9183C76.072 18.7557 76.1488 18.6775 76.1488 18.5211C76.0897 17.7388 75.9951 17.1431 75.8711 16.74C75.5934 15.6147 75.0499 14.7422 74.2346 14.1164C73.4192 13.4906 72.3972 13.1777 71.1742 13.1777C70.0398 13.1777 69.0946 13.4665 68.3442 14.0442Z" fill="#00163E"/>
<path d="M114.102 31.3257C112.371 30.0741 111.148 28.3412 110.445 26.1208C109.925 24.4299 109.665 22.6488 109.665 20.7774C109.665 18.7797 109.907 16.9985 110.404 15.434C111.113 13.2437 112.335 11.5408 114.084 10.3254C115.833 9.10384 117.936 8.49609 120.394 8.49609C122.852 8.49609 124.742 9.10384 126.45 10.3254C128.151 11.5469 129.357 13.2317 130.066 15.3919C130.615 16.8902 130.893 18.6774 130.893 20.7353C130.893 22.7932 130.633 24.4841 130.107 26.0786C129.398 28.299 128.187 30.044 126.473 31.3077C124.754 32.5713 122.71 33.2091 120.353 33.2091C117.995 33.2091 115.851 32.5834 114.114 31.3318L114.102 31.3257ZM123.265 27.5288C124.081 26.8729 124.671 25.9523 125.038 24.7609C125.345 23.7319 125.499 22.4141 125.499 20.8195C125.499 19.1287 125.345 17.8169 125.038 16.8782C124.701 15.6928 124.116 14.7782 123.289 14.1343C122.462 13.4965 121.446 13.1715 120.252 13.1715C119.059 13.1715 118.137 13.4905 117.304 14.1343C116.477 14.7782 115.874 15.6928 115.508 16.8782C115.201 17.9733 115.047 19.2851 115.047 20.8195C115.047 22.3539 115.201 23.6657 115.508 24.7609C115.845 25.9523 116.436 26.8729 117.281 27.5288C118.125 28.1847 119.147 28.5157 120.341 28.5157C121.534 28.5157 122.45 28.1847 123.265 27.5288Z" fill="#00163E"/>
<path d="M131.874 32.6137C131.797 32.4753 131.82 32.3068 131.945 32.1203L139.406 20.9582C139.465 20.8619 139.465 20.7717 139.406 20.6754L131.945 9.56145C131.885 9.43508 131.85 9.32677 131.85 9.23049C131.85 8.98379 132.004 8.85742 132.311 8.85742H136.825C137.102 8.85742 137.315 8.98379 137.469 9.23049L142.254 16.4513C142.313 16.5114 142.378 16.5475 142.437 16.5475C142.496 16.5475 142.544 16.5174 142.573 16.4513L147.359 9.23049C147.512 8.98379 147.725 8.85742 148.003 8.85742H152.835C153.048 8.85742 153.196 8.92963 153.273 9.06803C153.349 9.20642 153.326 9.37491 153.202 9.56145L145.746 20.6754C145.716 20.7717 145.716 20.8619 145.746 20.9582L153.202 32.1203C153.261 32.2467 153.296 32.355 153.296 32.4513C153.296 32.704 153.143 32.8243 152.835 32.8243H148.322C148.044 32.8243 147.831 32.698 147.678 32.4513L142.892 25.2305C142.863 25.1703 142.815 25.1342 142.756 25.1342C142.697 25.1342 142.632 25.1643 142.573 25.2305L137.788 32.4513C137.634 32.704 137.421 32.8243 137.144 32.8243H132.311C132.098 32.8243 131.95 32.7521 131.874 32.6137Z" fill="#00163E"/>
<path d="M100.608 8.42406H105.937V0.565468C105.937 0.409019 105.884 0.276638 105.777 0.168326C105.671 0.0600151 105.541 0.00585938 105.388 0.00585938H101.152C100.998 0.00585938 100.868 0.0600151 100.762 0.168326C100.655 0.276638 100.602 0.409019 100.602 0.565468V8.42406H100.614H100.608Z" fill="#00163E"/>
<path d="M100.608 13.3761C100.153 13.3761 99.787 12.997 99.787 12.5397V10.2832C98.5226 9.09181 96.9688 8.49609 95.1137 8.49609C92.8391 8.49609 90.9544 9.07375 89.4479 10.2291C87.9413 11.3844 86.8543 12.997 86.1807 15.061C85.6608 16.6556 85.4009 18.563 85.4009 20.7834C85.4009 23.0038 85.6786 24.8932 86.228 26.6443C86.9015 28.7082 87.9945 30.3148 89.4951 31.4762C90.9958 32.6315 92.8391 33.2091 95.0192 33.2091C97.1992 33.2091 98.9598 32.3968 100.313 30.7721C100.372 30.6759 100.437 30.6458 100.496 30.6759C100.555 30.706 100.59 30.7721 100.59 30.8624V32.2705C100.59 32.4269 100.644 32.5593 100.75 32.6676C100.856 32.7759 100.986 32.8301 101.14 32.8301H105.376C105.53 32.8301 105.66 32.7759 105.766 32.6676C105.872 32.5593 105.925 32.4269 105.925 32.2705V13.3821H100.596L100.608 13.3761ZM99.4857 26.2592C98.6231 27.7575 97.4119 28.5096 95.8463 28.5096C94.0975 28.5096 92.7918 27.7575 91.9352 26.2592C91.1967 24.8511 90.8304 23.058 90.8304 20.8677C90.8304 18.4307 91.2912 16.5232 92.2129 15.1452C93.105 13.8334 94.3279 13.1776 95.8936 13.1776C97.4592 13.1776 98.564 13.8635 99.3911 15.2415C100.159 16.5232 100.543 18.3825 100.543 20.8195C100.543 23.2565 100.189 24.9775 99.4857 26.2592Z" fill="#00163E"/>
<path d="M165.579 27.9316H157.201C156.748 27.9316 156.38 28.3061 156.38 28.768V32.0475C156.38 32.5094 156.748 32.8839 157.201 32.8839H165.579C166.032 32.8839 166.4 32.5094 166.4 32.0475V28.768C166.4 28.3061 166.032 27.9316 165.579 27.9316Z" fill="#6CC24A"/>
<path d="M37.6107 41.2299L39.2354 43.5646L40.7361 41.2299H39.8085V40.2852H42.7744V41.2299H41.8054L39.7258 44.401V46.8982H40.742V47.8429H37.6048V46.8982H38.6033V44.401L36.3937 41.2299H35.4897V40.2852H38.5383V41.2299H37.6048H37.6107Z" fill="#6D6E70"/>
<path d="M49.811 45.2196C49.811 45.7311 49.6928 46.2004 49.4506 46.6216C49.2084 47.0489 48.8834 47.3798 48.4699 47.6265C48.0563 47.8732 47.5955 47.9996 47.0933 47.9996C46.5911 47.9996 46.1066 47.8732 45.6872 47.6265C45.2677 47.3798 44.9487 47.0429 44.7123 46.6216C44.4819 46.1944 44.3638 45.7311 44.3638 45.2196C44.3638 44.7081 44.4819 44.2087 44.7123 43.7875C44.9428 43.3663 45.2677 43.0353 45.6813 42.7946C46.0948 42.5539 46.5616 42.4336 47.0874 42.4336C47.6132 42.4336 48.0563 42.56 48.4699 42.8127C48.8834 43.0654 49.2084 43.4024 49.4447 43.8296C49.681 44.2568 49.7992 44.7142 49.7992 45.2196H49.811ZM47.0992 46.9887C47.4005 46.9887 47.6782 46.9105 47.9322 46.748C48.1863 46.5855 48.3812 46.3749 48.523 46.0981C48.6648 45.8274 48.7357 45.5325 48.7357 45.2136C48.7357 44.8947 48.6648 44.6058 48.523 44.3351C48.3812 44.0643 48.1863 43.8477 47.9322 43.6792C47.6782 43.5107 47.4005 43.4325 47.0933 43.4325C46.7861 43.4325 46.5143 43.5107 46.2603 43.6732C46.0062 43.8356 45.8112 44.0522 45.6635 44.329C45.5158 44.6058 45.4449 44.8947 45.4449 45.2136C45.4449 45.5325 45.5158 45.8213 45.6635 46.0981C45.8053 46.3749 46.0062 46.5916 46.2662 46.748C46.5202 46.9105 46.8038 46.9887 47.1051 46.9887H47.0992Z" fill="#6D6E70"/>
<path d="M54.9155 47.0309C55.3704 47.0309 55.8667 46.8083 56.3984 46.357V43.5048H55.4826V42.5781H57.4146V46.9226H58.3008V47.8433H56.3984V47.2355C55.8017 47.6988 55.2345 47.9335 54.6969 47.9335C54.2124 47.9335 53.852 47.7891 53.6216 47.4943C53.3912 47.1994 53.273 46.712 53.273 46.0321V43.5048H52.5522V42.5781H54.2951V46.2487C54.2951 46.5195 54.3424 46.718 54.4428 46.8444C54.5374 46.9708 54.6969 47.0369 54.9214 47.0369L54.9155 47.0309Z" fill="#6D6E70"/>
<path d="M62.8142 45.7253V46.9167H63.9426V47.8373H60.77V46.9167H61.8098V43.4989H60.77V42.5722H62.6133V43.7636C62.8201 43.2943 63.0742 42.9633 63.3814 42.7768C63.6886 42.5903 64.1258 42.5 64.6989 42.5H64.9293V43.547H64.7048C64.1553 43.547 63.7418 43.6192 63.4759 43.7697C63.2041 43.9201 63.0269 44.1367 62.9442 44.4376C62.8556 44.7384 62.8142 45.1657 62.8142 45.7253Z" fill="#6D6E70"/>
<path d="M74.1163 41.2299V46.8982H76.5504V44.5574H77.472V47.8429H72.0366V46.8982H72.9937V41.2299H72.0366V40.2852H75.0674V41.2299H74.1103H74.1163Z" fill="#6D6E70"/>
<path d="M82.6831 46.9223V47.843H80.0718V46.9223H80.8812V43.5045H80.0718V42.5778H81.8974V46.9223H82.6831ZM81.9564 40.7967C81.9564 40.9652 81.8974 41.1156 81.7733 41.236C81.6492 41.3623 81.5074 41.4225 81.342 41.4225C81.1766 41.4225 81.0289 41.3623 80.9107 41.236C80.7926 41.1096 80.7335 40.9652 80.7335 40.7967C80.7335 40.6282 80.7926 40.4778 80.9107 40.3574C81.0289 40.2311 81.1707 40.1709 81.342 40.1709C81.5133 40.1709 81.661 40.2311 81.7792 40.3514C81.8974 40.4718 81.9564 40.6222 81.9564 40.7967Z" fill="#6D6E70"/>
<path d="M88.6858 41.3444L87.7819 41.4828C87.7524 41.1398 87.6224 40.9713 87.3979 40.9713C87.2384 40.9713 87.132 41.0315 87.073 41.1458C87.0198 41.2602 86.9902 41.4708 86.9902 41.7716V42.5719H87.8764V43.4986H86.9902V46.9164H87.9651V47.8371H85.2119V46.9164H85.9681V43.4986H85.2119V42.5719H85.9681V41.7536C85.9681 41.2722 86.0863 40.8811 86.3167 40.5802C86.5471 40.2793 86.8898 40.1289 87.3447 40.1289C87.7169 40.1289 88.0182 40.2312 88.2486 40.4298C88.4791 40.6344 88.6209 40.9352 88.6858 41.3384V41.3444Z" fill="#6D6E70"/>
<path d="M95.9703 45.4723H91.6338C91.6988 45.9778 91.8878 46.3749 92.2127 46.6698C92.5318 46.9646 92.9276 47.109 93.3944 47.109C93.737 47.109 94.0502 47.0368 94.3456 46.8924C94.641 46.748 94.8832 46.5254 95.0781 46.2305L95.9762 46.6397C95.6926 47.085 95.3263 47.428 94.8655 47.6566C94.4046 47.8853 93.9084 47.9996 93.3707 47.9996C92.8331 47.9996 92.3191 47.8793 91.8819 47.6446C91.4506 47.4099 91.1139 47.079 90.8716 46.6517C90.6294 46.2245 90.5112 45.7491 90.5112 45.2196C90.5112 44.6901 90.6294 44.2147 90.8657 43.7875C91.102 43.3603 91.427 43.0293 91.8405 42.7946C92.2541 42.5539 92.709 42.4336 93.2112 42.4336C93.7548 42.4336 94.2333 42.5539 94.635 42.8006C95.0368 43.0474 95.3617 43.3964 95.5922 43.8537C95.8226 44.311 95.9525 44.8465 95.9703 45.4723ZM93.2289 43.2941C92.8449 43.2941 92.5081 43.4264 92.2187 43.6852C91.9292 43.95 91.746 44.2929 91.6633 44.7262H94.9009C94.8064 44.2929 94.6055 43.95 94.2983 43.6852C93.9911 43.4204 93.6366 43.2941 93.2289 43.2941Z" fill="#6D6E70"/>
<path d="M99.3081 47.8437V46.5078H100.62V47.8437H99.3081Z" fill="#6D6E70"/>
<path d="M112.507 40.7609V40.2434H113.411V42.536H112.507V42.0125C112.123 41.4228 111.597 41.128 110.929 41.128C110.522 41.128 110.209 41.2122 109.996 41.3807C109.777 41.5492 109.671 41.7899 109.671 42.1028C109.671 42.4157 109.771 42.6323 109.978 42.7887C110.185 42.9452 110.498 43.0776 110.923 43.1919L111.792 43.4266C112.347 43.577 112.773 43.7756 113.068 44.0223C113.363 44.269 113.558 44.5338 113.647 44.8106C113.736 45.0874 113.783 45.3942 113.783 45.7372C113.783 46.4232 113.57 46.9647 113.151 47.3679C112.731 47.7711 112.17 47.9696 111.461 47.9696C110.752 47.9696 110.179 47.7169 109.624 47.2175V47.8433H108.696V45.0873H109.624V45.7553C110.067 46.5857 110.646 47.0009 111.355 47.0009C111.774 47.0009 112.093 46.8925 112.324 46.6699C112.554 46.4533 112.666 46.1404 112.666 45.7432C112.666 45.2017 112.294 44.8286 111.544 44.612L110.616 44.3472C109.949 44.1547 109.458 43.8899 109.139 43.559C108.82 43.228 108.661 42.7948 108.661 42.2532C108.661 41.5913 108.856 41.0738 109.24 40.7068C109.624 40.3397 110.155 40.1592 110.835 40.1592C111.426 40.1592 111.975 40.3578 112.489 40.7549L112.507 40.7609Z" fill="#6D6E70"/>
<path d="M121.995 45.4723H117.659C117.724 45.9778 117.913 46.3749 118.238 46.6698C118.557 46.9646 118.953 47.109 119.419 47.109C119.762 47.109 120.075 47.0368 120.37 46.8924C120.666 46.748 120.908 46.5254 121.103 46.2305L122.001 46.6397C121.717 47.085 121.351 47.428 120.89 47.6566C120.43 47.8853 119.933 47.9996 119.396 47.9996C118.858 47.9996 118.344 47.8793 117.907 47.6446C117.476 47.4099 117.139 47.079 116.897 46.6517C116.654 46.2245 116.536 45.7491 116.536 45.2196C116.536 44.6901 116.654 44.2147 116.891 43.7875C117.127 43.3603 117.452 43.0293 117.865 42.7946C118.279 42.5539 118.734 42.4336 119.236 42.4336C119.78 42.4336 120.258 42.5539 120.66 42.8006C121.062 43.0474 121.387 43.3964 121.617 43.8537C121.847 44.311 121.977 44.8465 121.995 45.4723ZM119.254 43.2941C118.87 43.2941 118.533 43.4264 118.244 43.6852C117.954 43.95 117.771 44.2929 117.688 44.7262H120.926C120.831 44.2929 120.63 43.95 120.323 43.6852C120.016 43.4204 119.661 43.2941 119.254 43.2941Z" fill="#6D6E70"/>
<path d="M128.772 42.9569V42.5779H129.676V44.5756H128.772C128.73 44.1905 128.583 43.8956 128.317 43.6971C128.057 43.4925 127.75 43.3962 127.407 43.3962C127.112 43.3962 126.846 43.4744 126.609 43.6369C126.373 43.7994 126.196 44.016 126.066 44.2868C125.936 44.5636 125.871 44.8584 125.871 45.1833C125.871 45.7369 126.019 46.1882 126.302 46.5372C126.592 46.8862 126.97 47.0607 127.442 47.0607C128.175 47.0607 128.689 46.7117 128.99 46.0197L129.835 46.4289C129.357 47.4759 128.547 48.0055 127.395 48.0055C126.881 48.0055 126.42 47.8791 126.019 47.6324C125.617 47.3857 125.31 47.0487 125.091 46.6155C124.872 46.1822 124.766 45.7068 124.766 45.1833C124.766 44.6598 124.878 44.2025 125.097 43.7813C125.321 43.3601 125.623 43.0292 126.013 42.7945C126.403 42.5598 126.834 42.4395 127.307 42.4395C127.874 42.4395 128.358 42.614 128.76 42.963L128.772 42.9569Z" fill="#6D6E70"/>
<path d="M134.81 47.0309C135.265 47.0309 135.761 46.8083 136.293 46.357V43.5048H135.377V42.5781H137.309V46.9226H138.195V47.8433H136.293V47.2355C135.696 47.6988 135.129 47.9335 134.591 47.9335C134.107 47.9335 133.747 47.7891 133.516 47.4943C133.286 47.1994 133.168 46.712 133.168 46.0321V43.5048H132.447V42.5781H134.19V46.2487C134.19 46.5195 134.237 46.718 134.337 46.8444C134.432 46.9708 134.591 47.0369 134.816 47.0369L134.81 47.0309Z" fill="#6D6E70"/>
<path d="M142.709 45.7253V46.9167H143.837V47.8373H140.665V46.9167H141.704V43.4989H140.665V42.5722H142.508V43.7636C142.715 43.2943 142.969 42.9633 143.276 42.7768C143.583 42.5903 144.02 42.5 144.593 42.5H144.824V43.547H144.599C144.05 43.547 143.636 43.6192 143.37 43.7697C143.099 43.9201 142.921 44.1367 142.839 44.4376C142.75 44.7384 142.709 45.1657 142.709 45.7253Z" fill="#6D6E70"/>
<path d="M152.262 45.4723H147.926C147.991 45.9778 148.18 46.3749 148.505 46.6698C148.824 46.9646 149.22 47.109 149.686 47.109C150.029 47.109 150.342 47.0368 150.638 46.8924C150.933 46.748 151.175 46.5254 151.37 46.2305L152.268 46.6397C151.985 47.085 151.618 47.428 151.157 47.6566C150.697 47.8853 150.2 47.9996 149.663 47.9996C149.125 47.9996 148.611 47.8793 148.174 47.6446C147.743 47.4099 147.406 47.079 147.164 46.6517C146.921 46.2245 146.803 45.7491 146.803 45.2196C146.803 44.6901 146.921 44.2147 147.158 43.7875C147.394 43.3603 147.719 43.0293 148.133 42.7946C148.546 42.5539 149.001 42.4336 149.503 42.4336C150.047 42.4336 150.525 42.5539 150.927 42.8006C151.329 43.0474 151.654 43.3964 151.884 43.8537C152.115 44.311 152.245 44.8465 152.262 45.4723ZM149.521 43.2941C149.137 43.2941 148.8 43.4264 148.511 43.6852C148.221 43.95 148.038 44.2929 147.955 44.7262H151.193C151.098 44.2929 150.897 43.95 150.59 43.6852C150.283 43.4204 149.929 43.2941 149.521 43.2941Z" fill="#6D6E70"/>
<path d="M161.378 46.9224V47.843H159.435V47.0728C158.915 47.6505 158.3 47.9333 157.579 47.9333C157.083 47.9333 156.64 47.813 156.256 47.5723C155.872 47.3316 155.577 47.0066 155.364 46.5975C155.151 46.1883 155.045 45.731 155.045 45.2315C155.045 44.7321 155.157 44.2567 155.382 43.8295C155.606 43.4023 155.919 43.0593 156.315 42.8066C156.711 42.5538 157.142 42.4275 157.603 42.4275C157.94 42.4275 158.253 42.4937 158.554 42.6321C158.856 42.7705 159.145 42.9871 159.429 43.2819V41.1939H158.43V40.2793H160.439V46.9104H161.372L161.378 46.9224ZM157.769 47.0127C158.082 47.0127 158.365 46.9284 158.619 46.7599C158.873 46.5914 159.068 46.3628 159.216 46.08C159.358 45.7972 159.435 45.4903 159.435 45.1653C159.435 44.8404 159.364 44.5395 159.216 44.2688C159.068 43.998 158.873 43.7814 158.613 43.6249C158.359 43.4685 158.07 43.3902 157.745 43.3902C157.42 43.3902 157.154 43.4745 156.912 43.643C156.67 43.8114 156.475 44.0341 156.333 44.3169C156.191 44.5997 156.12 44.8946 156.12 45.2135C156.12 45.5565 156.191 45.8633 156.339 46.1341C156.481 46.4109 156.681 46.6215 156.93 46.778C157.178 46.9344 157.455 47.0127 157.769 47.0127Z" fill="#6D6E70"/>
<path d="M164.457 47.8437V46.5078H165.768V47.8437H164.457Z" fill="#6D6E70"/>
</svg>
